<mxfile host="app.diagrams.net" modified="2023-08-12T20:31:43.602Z" agent="Mozilla/5.0 (Windows NT 10.0; Win64; x64) AppleWebKit/537.36 (KHTML, like Gecko) Chrome/115.0.0.0 Safari/537.36" etag="rEANayDVW_qrRoinPpr1" version="21.6.7" type="github">
  <diagram name="Page-1" id="MP3lhUmpOYRh14QqVenC">
    <mxGraphModel dx="2206" dy="2394" grid="1" gridSize="10" guides="1" tooltips="1" connect="1" arrows="1" fold="1" page="1" pageScale="1" pageWidth="827" pageHeight="1169" math="0" shadow="0">
      <root>
        <mxCell id="0" />
        <mxCell id="1" parent="0" />
        <mxCell id="Cj-gU3hh-OPhlNh2P_BH-46" style="edgeStyle=orthogonalEdgeStyle;rounded=1;orthogonalLoop=1;jettySize=auto;html=1;exitX=0.5;exitY=0.5;exitDx=0;exitDy=0;exitPerimeter=0;entryX=0;entryY=0.5;entryDx=0;entryDy=0;strokeWidth=3;" parent="1" source="Cj-gU3hh-OPhlNh2P_BH-1" target="Cj-gU3hh-OPhlNh2P_BH-8" edge="1">
          <mxGeometry relative="1" as="geometry">
            <Array as="points">
              <mxPoint x="510" y="175" />
              <mxPoint x="510" y="250" />
            </Array>
          </mxGeometry>
        </mxCell>
        <mxCell id="Cj-gU3hh-OPhlNh2P_BH-47" style="edgeStyle=orthogonalEdgeStyle;rounded=1;orthogonalLoop=1;jettySize=auto;html=1;exitX=0.5;exitY=0.5;exitDx=0;exitDy=0;exitPerimeter=0;entryX=0;entryY=0.5;entryDx=0;entryDy=0;strokeWidth=3;" parent="1" source="Cj-gU3hh-OPhlNh2P_BH-1" target="Cj-gU3hh-OPhlNh2P_BH-9" edge="1">
          <mxGeometry relative="1" as="geometry">
            <Array as="points">
              <mxPoint x="450" y="175" />
              <mxPoint x="450" y="380" />
            </Array>
          </mxGeometry>
        </mxCell>
        <mxCell id="Cj-gU3hh-OPhlNh2P_BH-48" style="edgeStyle=orthogonalEdgeStyle;rounded=1;orthogonalLoop=1;jettySize=auto;html=1;exitX=0.5;exitY=0.5;exitDx=0;exitDy=0;exitPerimeter=0;entryX=0;entryY=0.5;entryDx=0;entryDy=0;strokeWidth=3;" parent="1" source="Cj-gU3hh-OPhlNh2P_BH-1" target="Cj-gU3hh-OPhlNh2P_BH-10" edge="1">
          <mxGeometry relative="1" as="geometry">
            <Array as="points">
              <mxPoint x="390" y="175" />
              <mxPoint x="390" y="480" />
            </Array>
          </mxGeometry>
        </mxCell>
        <mxCell id="Cj-gU3hh-OPhlNh2P_BH-49" style="edgeStyle=orthogonalEdgeStyle;orthogonalLoop=1;jettySize=auto;html=1;exitX=0.5;exitY=0.5;exitDx=0;exitDy=0;exitPerimeter=0;entryX=0;entryY=0.5;entryDx=0;entryDy=0;strokeWidth=3;rounded=1;" parent="1" source="Cj-gU3hh-OPhlNh2P_BH-1" target="Cj-gU3hh-OPhlNh2P_BH-4" edge="1">
          <mxGeometry relative="1" as="geometry">
            <Array as="points">
              <mxPoint x="410" y="175" />
              <mxPoint x="410" y="30" />
            </Array>
          </mxGeometry>
        </mxCell>
        <mxCell id="Cj-gU3hh-OPhlNh2P_BH-50" style="edgeStyle=orthogonalEdgeStyle;rounded=1;orthogonalLoop=1;jettySize=auto;html=1;exitX=0.5;exitY=0.5;exitDx=0;exitDy=0;exitPerimeter=0;entryX=0;entryY=0.5;entryDx=0;entryDy=0;strokeWidth=3;" parent="1" source="Cj-gU3hh-OPhlNh2P_BH-1" target="Cj-gU3hh-OPhlNh2P_BH-7" edge="1">
          <mxGeometry relative="1" as="geometry">
            <Array as="points">
              <mxPoint x="480" y="175" />
              <mxPoint x="480" y="140" />
            </Array>
          </mxGeometry>
        </mxCell>
        <mxCell id="Cj-gU3hh-OPhlNh2P_BH-1" value="&lt;b&gt;&lt;font style=&quot;font-size: 17px;&quot;&gt;Cllient&lt;/font&gt;&lt;/b&gt;" style="shape=umlActor;verticalLabelPosition=bottom;verticalAlign=top;html=1;strokeWidth=4;" parent="1" vertex="1">
          <mxGeometry x="270" y="120" width="55" height="110" as="geometry" />
        </mxCell>
        <mxCell id="Cj-gU3hh-OPhlNh2P_BH-79" style="edgeStyle=orthogonalEdgeStyle;rounded=1;orthogonalLoop=1;jettySize=auto;html=1;exitX=1;exitY=1;exitDx=0;exitDy=0;entryX=0.5;entryY=0;entryDx=0;entryDy=0;dashed=1;strokeWidth=2;" parent="1" source="Cj-gU3hh-OPhlNh2P_BH-4" target="Cj-gU3hh-OPhlNh2P_BH-51" edge="1">
          <mxGeometry relative="1" as="geometry">
            <Array as="points">
              <mxPoint x="845" y="80" />
              <mxPoint x="1190" y="80" />
            </Array>
          </mxGeometry>
        </mxCell>
        <mxCell id="Cj-gU3hh-OPhlNh2P_BH-4" value="&lt;font style=&quot;font-size: 20px;&quot;&gt;Gerer panier&lt;/font&gt;" style="ellipse;whiteSpace=wrap;html=1;fillStyle=solid;" parent="1" vertex="1">
          <mxGeometry x="640" width="240" height="60" as="geometry" />
        </mxCell>
        <mxCell id="Cj-gU3hh-OPhlNh2P_BH-61" style="edgeStyle=orthogonalEdgeStyle;rounded=1;orthogonalLoop=1;jettySize=auto;html=1;exitX=1;exitY=0;exitDx=0;exitDy=0;entryX=0.034;entryY=0.302;entryDx=0;entryDy=0;entryPerimeter=0;dashed=1;strokeWidth=2;" parent="1" source="Cj-gU3hh-OPhlNh2P_BH-7" target="Cj-gU3hh-OPhlNh2P_BH-51" edge="1">
          <mxGeometry relative="1" as="geometry" />
        </mxCell>
        <mxCell id="Cj-gU3hh-OPhlNh2P_BH-7" value="&lt;font style=&quot;font-size: 20px;&quot;&gt;Gerer Compte&lt;/font&gt;" style="ellipse;whiteSpace=wrap;html=1;" parent="1" vertex="1">
          <mxGeometry x="630" y="110" width="240" height="60" as="geometry" />
        </mxCell>
        <mxCell id="Cj-gU3hh-OPhlNh2P_BH-77" style="edgeStyle=orthogonalEdgeStyle;rounded=1;orthogonalLoop=1;jettySize=auto;html=1;exitX=1;exitY=0;exitDx=0;exitDy=0;entryX=0.5;entryY=1;entryDx=0;entryDy=0;dashed=1;strokeWidth=2;" parent="1" source="Cj-gU3hh-OPhlNh2P_BH-8" target="Cj-gU3hh-OPhlNh2P_BH-51" edge="1">
          <mxGeometry relative="1" as="geometry">
            <Array as="points">
              <mxPoint x="900" y="229" />
              <mxPoint x="900" y="180" />
              <mxPoint x="1190" y="180" />
            </Array>
          </mxGeometry>
        </mxCell>
        <mxCell id="Cj-gU3hh-OPhlNh2P_BH-8" value="&lt;font style=&quot;font-size: 20px;&quot;&gt;Gerer Commande&lt;/font&gt;" style="ellipse;whiteSpace=wrap;html=1;" parent="1" vertex="1">
          <mxGeometry x="630" y="220" width="240" height="60" as="geometry" />
        </mxCell>
        <mxCell id="Cj-gU3hh-OPhlNh2P_BH-9" value="&lt;font style=&quot;font-size: 20px;&quot;&gt;Creer compte&lt;/font&gt;" style="ellipse;whiteSpace=wrap;html=1;" parent="1" vertex="1">
          <mxGeometry x="630" y="350" width="240" height="60" as="geometry" />
        </mxCell>
        <mxCell id="Cj-gU3hh-OPhlNh2P_BH-10" value="&lt;font style=&quot;font-size: 20px;&quot;&gt;Rechercher produit&lt;/font&gt;" style="ellipse;whiteSpace=wrap;html=1;" parent="1" vertex="1">
          <mxGeometry x="630" y="450" width="240" height="60" as="geometry" />
        </mxCell>
        <mxCell id="Cj-gU3hh-OPhlNh2P_BH-58" style="edgeStyle=orthogonalEdgeStyle;rounded=0;orthogonalLoop=1;jettySize=auto;html=1;exitX=0;exitY=0.5;exitDx=0;exitDy=0;entryX=1;entryY=0.5;entryDx=0;entryDy=0;dashed=1;strokeWidth=2;" parent="1" source="Cj-gU3hh-OPhlNh2P_BH-21" target="Cj-gU3hh-OPhlNh2P_BH-4" edge="1">
          <mxGeometry relative="1" as="geometry" />
        </mxCell>
        <mxCell id="Cj-gU3hh-OPhlNh2P_BH-21" value="&lt;font style=&quot;font-size: 20px;&quot;&gt;Ajouter produit&lt;/font&gt;" style="ellipse;whiteSpace=wrap;html=1;flipV=1;flipH=1;" parent="1" vertex="1">
          <mxGeometry x="1070" y="2.5" width="240" height="55" as="geometry" />
        </mxCell>
        <mxCell id="Cj-gU3hh-OPhlNh2P_BH-82" style="edgeStyle=orthogonalEdgeStyle;rounded=1;orthogonalLoop=1;jettySize=auto;html=1;entryX=0.583;entryY=0;entryDx=0;entryDy=0;entryPerimeter=0;dashed=1;strokeWidth=2;" parent="1" source="Cj-gU3hh-OPhlNh2P_BH-22" target="Cj-gU3hh-OPhlNh2P_BH-4" edge="1">
          <mxGeometry relative="1" as="geometry" />
        </mxCell>
        <mxCell id="Cj-gU3hh-OPhlNh2P_BH-22" value="&lt;font style=&quot;font-size: 20px;&quot;&gt;Supprimer produit&lt;/font&gt;" style="ellipse;whiteSpace=wrap;html=1;flipV=1;flipH=1;" parent="1" vertex="1">
          <mxGeometry x="1070" y="-80" width="240" height="60" as="geometry" />
        </mxCell>
        <mxCell id="Cj-gU3hh-OPhlNh2P_BH-37" style="edgeStyle=orthogonalEdgeStyle;rounded=1;orthogonalLoop=1;jettySize=auto;html=1;exitX=0;exitY=0.5;exitDx=0;exitDy=0;entryX=1;entryY=0.5;entryDx=0;entryDy=0;dashed=1;strokeWidth=2;" parent="1" source="Cj-gU3hh-OPhlNh2P_BH-28" target="Cj-gU3hh-OPhlNh2P_BH-8" edge="1">
          <mxGeometry relative="1" as="geometry">
            <Array as="points">
              <mxPoint x="930" y="237" />
              <mxPoint x="930" y="250" />
            </Array>
          </mxGeometry>
        </mxCell>
        <mxCell id="Cj-gU3hh-OPhlNh2P_BH-28" value="&lt;font style=&quot;font-size: 20px;&quot;&gt;Modifier Commande&lt;/font&gt;" style="ellipse;whiteSpace=wrap;html=1;flipV=1;flipH=1;" parent="1" vertex="1">
          <mxGeometry x="1070" y="207" width="240" height="60" as="geometry" />
        </mxCell>
        <mxCell id="Cj-gU3hh-OPhlNh2P_BH-38" style="edgeStyle=orthogonalEdgeStyle;rounded=1;orthogonalLoop=1;jettySize=auto;html=1;exitX=0;exitY=0.5;exitDx=0;exitDy=0;entryX=0.903;entryY=0.864;entryDx=0;entryDy=0;entryPerimeter=0;dashed=1;strokeWidth=2;" parent="1" source="Cj-gU3hh-OPhlNh2P_BH-29" target="Cj-gU3hh-OPhlNh2P_BH-8" edge="1">
          <mxGeometry relative="1" as="geometry">
            <Array as="points">
              <mxPoint x="920" y="308" />
              <mxPoint x="920" y="272" />
            </Array>
          </mxGeometry>
        </mxCell>
        <mxCell id="Cj-gU3hh-OPhlNh2P_BH-29" value="&lt;font style=&quot;font-size: 20px;&quot;&gt;Annuler commande&lt;/font&gt;" style="ellipse;whiteSpace=wrap;html=1;flipV=1;flipH=1;" parent="1" vertex="1">
          <mxGeometry x="1070" y="278" width="240" height="60" as="geometry" />
        </mxCell>
        <mxCell id="Cj-gU3hh-OPhlNh2P_BH-39" style="edgeStyle=orthogonalEdgeStyle;rounded=1;orthogonalLoop=1;jettySize=auto;html=1;exitX=0;exitY=0.5;exitDx=0;exitDy=0;entryX=0.75;entryY=1;entryDx=0;entryDy=0;entryPerimeter=0;dashed=1;strokeWidth=2;" parent="1" source="Cj-gU3hh-OPhlNh2P_BH-30" target="Cj-gU3hh-OPhlNh2P_BH-8" edge="1">
          <mxGeometry relative="1" as="geometry">
            <Array as="points">
              <mxPoint x="900" y="380" />
              <mxPoint x="900" y="280" />
            </Array>
          </mxGeometry>
        </mxCell>
        <mxCell id="Cj-gU3hh-OPhlNh2P_BH-30" value="&lt;font style=&quot;font-size: 20px;&quot;&gt;Valider commande&lt;/font&gt;" style="ellipse;whiteSpace=wrap;html=1;flipV=1;flipH=1;" parent="1" vertex="1">
          <mxGeometry x="1070" y="350" width="240" height="60" as="geometry" />
        </mxCell>
        <mxCell id="Cj-gU3hh-OPhlNh2P_BH-51" value="&lt;font face=&quot;Times New Roman&quot; style=&quot;font-size: 20px;&quot;&gt;Connexion&lt;/font&gt;" style="ellipse;whiteSpace=wrap;html=1;" parent="1" vertex="1">
          <mxGeometry x="1070" y="100" width="240" height="60" as="geometry" />
        </mxCell>
        <mxCell id="Cj-gU3hh-OPhlNh2P_BH-65" value="&lt;font style=&quot;font-size: 19px;&quot;&gt;&amp;lt;&amp;lt;Extend&amp;gt;&amp;gt;&lt;/font&gt;" style="text;html=1;strokeColor=none;fillColor=default;align=center;verticalAlign=middle;whiteSpace=wrap;rounded=0;" parent="1" vertex="1">
          <mxGeometry x="943" y="365" width="107" height="30" as="geometry" />
        </mxCell>
        <mxCell id="Cj-gU3hh-OPhlNh2P_BH-75" value="&lt;font style=&quot;font-size: 19px;&quot;&gt;&amp;lt;&amp;lt;Extend&amp;gt;&amp;gt;&lt;/font&gt;" style="text;html=1;strokeColor=none;fillColor=default;align=center;verticalAlign=middle;whiteSpace=wrap;rounded=0;" parent="1" vertex="1">
          <mxGeometry x="943" y="294" width="100" height="30" as="geometry" />
        </mxCell>
        <mxCell id="Cj-gU3hh-OPhlNh2P_BH-76" value="&lt;font style=&quot;font-size: 19px;&quot;&gt;&amp;lt;&amp;lt;extend&amp;gt;&amp;gt;&lt;/font&gt;" style="text;html=1;strokeColor=none;fillColor=default;align=center;verticalAlign=middle;whiteSpace=wrap;rounded=0;" parent="1" vertex="1">
          <mxGeometry x="943" y="221" width="100" height="30" as="geometry" />
        </mxCell>
        <mxCell id="Cj-gU3hh-OPhlNh2P_BH-78" value="&lt;font style=&quot;font-size: 19px;&quot;&gt;&amp;lt;&amp;lt;include&amp;gt;&amp;gt;&lt;/font&gt;" style="text;html=1;strokeColor=none;fillColor=default;align=center;verticalAlign=middle;whiteSpace=wrap;rounded=0;" parent="1" vertex="1">
          <mxGeometry x="943" y="165" width="100" height="30" as="geometry" />
        </mxCell>
        <mxCell id="Cj-gU3hh-OPhlNh2P_BH-80" value="&lt;font style=&quot;font-size: 19px;&quot;&gt;&amp;lt;&amp;lt;include&amp;gt;&amp;gt;&lt;/font&gt;" style="text;html=1;strokeColor=none;fillColor=default;align=center;verticalAlign=middle;whiteSpace=wrap;rounded=0;" parent="1" vertex="1">
          <mxGeometry x="943" y="108" width="100" height="30" as="geometry" />
        </mxCell>
        <mxCell id="Cj-gU3hh-OPhlNh2P_BH-81" value="&lt;font style=&quot;font-size: 19px;&quot;&gt;&amp;lt;&amp;lt;include&amp;gt;&amp;gt;&lt;/font&gt;" style="text;html=1;strokeColor=none;fillColor=default;align=center;verticalAlign=middle;whiteSpace=wrap;rounded=0;" parent="1" vertex="1">
          <mxGeometry x="943" y="64" width="100" height="30" as="geometry" />
        </mxCell>
        <mxCell id="Cj-gU3hh-OPhlNh2P_BH-83" value="&lt;font style=&quot;font-size: 19px;&quot;&gt;&amp;lt;&amp;lt;extend&amp;gt;&amp;gt;&lt;/font&gt;" style="text;html=1;strokeColor=none;fillColor=default;align=center;verticalAlign=middle;whiteSpace=wrap;rounded=0;" parent="1" vertex="1">
          <mxGeometry x="950" y="-65" width="100" height="30" as="geometry" />
        </mxCell>
        <mxCell id="Cj-gU3hh-OPhlNh2P_BH-84" value="&lt;font style=&quot;font-size: 19px;&quot;&gt;&amp;lt;&amp;lt;extend&amp;gt;&amp;gt;&lt;/font&gt;" style="text;html=1;strokeColor=none;fillColor=default;align=center;verticalAlign=middle;whiteSpace=wrap;rounded=0;" parent="1" vertex="1">
          <mxGeometry x="950" y="16" width="100" height="30" as="geometry" />
        </mxCell>
        <mxCell id="yTbpCCuxqW_o6gBiZuwL-2" value="&lt;b style=&quot;border-color: var(--border-color); font-family: &amp;quot;Times New Roman&amp;quot;; font-size: 24px;&quot;&gt;Fadyl-Store&amp;nbsp; cas d&#39;utilisations client&lt;/b&gt;" style="shape=umlFrame;whiteSpace=wrap;html=1;pointerEvents=0;width=440;height=44;" parent="1" vertex="1">
          <mxGeometry x="360" y="-190" width="970" height="764" as="geometry" />
        </mxCell>
        <mxCell id="NZRVEaTQ7mNEFwLoyxDp-2" style="edgeStyle=orthogonalEdgeStyle;rounded=1;orthogonalLoop=1;jettySize=auto;html=1;exitX=0.5;exitY=0.5;exitDx=0;exitDy=0;exitPerimeter=0;entryX=0;entryY=0.5;entryDx=0;entryDy=0;strokeWidth=3;" edge="1" source="NZRVEaTQ7mNEFwLoyxDp-6" target="NZRVEaTQ7mNEFwLoyxDp-13" parent="1">
          <mxGeometry relative="1" as="geometry">
            <Array as="points">
              <mxPoint x="440" y="-475" />
              <mxPoint x="440" y="-380" />
            </Array>
          </mxGeometry>
        </mxCell>
        <mxCell id="NZRVEaTQ7mNEFwLoyxDp-3" style="edgeStyle=orthogonalEdgeStyle;rounded=1;orthogonalLoop=1;jettySize=auto;html=1;exitX=0.5;exitY=0.5;exitDx=0;exitDy=0;exitPerimeter=0;entryX=0;entryY=0.5;entryDx=0;entryDy=0;strokeWidth=3;" edge="1" source="NZRVEaTQ7mNEFwLoyxDp-6" target="NZRVEaTQ7mNEFwLoyxDp-14" parent="1">
          <mxGeometry relative="1" as="geometry">
            <Array as="points">
              <mxPoint x="380" y="-475" />
              <mxPoint x="380" y="-304" />
            </Array>
          </mxGeometry>
        </mxCell>
        <mxCell id="NZRVEaTQ7mNEFwLoyxDp-4" style="edgeStyle=orthogonalEdgeStyle;orthogonalLoop=1;jettySize=auto;html=1;exitX=0.5;exitY=0.5;exitDx=0;exitDy=0;exitPerimeter=0;entryX=0;entryY=0.5;entryDx=0;entryDy=0;strokeWidth=3;rounded=1;" edge="1" source="NZRVEaTQ7mNEFwLoyxDp-6" target="NZRVEaTQ7mNEFwLoyxDp-8" parent="1">
          <mxGeometry relative="1" as="geometry">
            <Array as="points">
              <mxPoint x="655" y="-475" />
            </Array>
          </mxGeometry>
        </mxCell>
        <mxCell id="NZRVEaTQ7mNEFwLoyxDp-6" value="&lt;b&gt;&lt;font style=&quot;font-size: 17px;&quot;&gt;visiteur&lt;/font&gt;&lt;/b&gt;" style="shape=umlActor;verticalLabelPosition=bottom;verticalAlign=top;html=1;strokeWidth=4;" vertex="1" parent="1">
          <mxGeometry x="260" y="-530" width="55" height="110" as="geometry" />
        </mxCell>
        <mxCell id="NZRVEaTQ7mNEFwLoyxDp-8" value="&lt;font style=&quot;font-size: 20px;&quot;&gt;Gerer panier&lt;/font&gt;" style="ellipse;whiteSpace=wrap;html=1;fillStyle=solid;" vertex="1" parent="1">
          <mxGeometry x="670" y="-505" width="240" height="60" as="geometry" />
        </mxCell>
        <mxCell id="NZRVEaTQ7mNEFwLoyxDp-13" value="&lt;font style=&quot;font-size: 20px;&quot;&gt;Creer compte&lt;/font&gt;" style="ellipse;whiteSpace=wrap;html=1;" vertex="1" parent="1">
          <mxGeometry x="685" y="-410" width="240" height="60" as="geometry" />
        </mxCell>
        <mxCell id="NZRVEaTQ7mNEFwLoyxDp-14" value="&lt;font style=&quot;font-size: 20px;&quot;&gt;Rechercher produit&lt;/font&gt;" style="ellipse;whiteSpace=wrap;html=1;" vertex="1" parent="1">
          <mxGeometry x="685" y="-334" width="240" height="60" as="geometry" />
        </mxCell>
        <mxCell id="NZRVEaTQ7mNEFwLoyxDp-15" style="edgeStyle=orthogonalEdgeStyle;rounded=0;orthogonalLoop=1;jettySize=auto;html=1;exitX=0;exitY=0.5;exitDx=0;exitDy=0;entryX=1;entryY=0.5;entryDx=0;entryDy=0;dashed=1;strokeWidth=2;" edge="1" source="NZRVEaTQ7mNEFwLoyxDp-16" target="NZRVEaTQ7mNEFwLoyxDp-8" parent="1">
          <mxGeometry relative="1" as="geometry" />
        </mxCell>
        <mxCell id="NZRVEaTQ7mNEFwLoyxDp-16" value="&lt;font style=&quot;font-size: 20px;&quot;&gt;Ajouter produit&lt;/font&gt;" style="ellipse;whiteSpace=wrap;html=1;flipV=1;flipH=1;" vertex="1" parent="1">
          <mxGeometry x="1060" y="-647.5" width="240" height="55" as="geometry" />
        </mxCell>
        <mxCell id="NZRVEaTQ7mNEFwLoyxDp-17" style="edgeStyle=orthogonalEdgeStyle;rounded=1;orthogonalLoop=1;jettySize=auto;html=1;entryX=0.583;entryY=0;entryDx=0;entryDy=0;entryPerimeter=0;dashed=1;strokeWidth=2;" edge="1" source="NZRVEaTQ7mNEFwLoyxDp-18" target="NZRVEaTQ7mNEFwLoyxDp-8" parent="1">
          <mxGeometry relative="1" as="geometry" />
        </mxCell>
        <mxCell id="NZRVEaTQ7mNEFwLoyxDp-18" value="&lt;font style=&quot;font-size: 20px;&quot;&gt;Supprimer produit&lt;/font&gt;" style="ellipse;whiteSpace=wrap;html=1;flipV=1;flipH=1;" vertex="1" parent="1">
          <mxGeometry x="1060" y="-730" width="240" height="60" as="geometry" />
        </mxCell>
        <mxCell id="NZRVEaTQ7mNEFwLoyxDp-32" value="&lt;font style=&quot;font-size: 19px;&quot;&gt;&amp;lt;&amp;lt;extend&amp;gt;&amp;gt;&lt;/font&gt;" style="text;html=1;strokeColor=none;fillColor=default;align=center;verticalAlign=middle;whiteSpace=wrap;rounded=0;" vertex="1" parent="1">
          <mxGeometry x="940" y="-715" width="100" height="30" as="geometry" />
        </mxCell>
        <mxCell id="NZRVEaTQ7mNEFwLoyxDp-33" value="&lt;font style=&quot;font-size: 19px;&quot;&gt;&amp;lt;&amp;lt;extend&amp;gt;&amp;gt;&lt;/font&gt;" style="text;html=1;strokeColor=none;fillColor=default;align=center;verticalAlign=middle;whiteSpace=wrap;rounded=0;" vertex="1" parent="1">
          <mxGeometry x="940" y="-634" width="100" height="30" as="geometry" />
        </mxCell>
        <mxCell id="NZRVEaTQ7mNEFwLoyxDp-34" value="&lt;b style=&quot;border-color: var(--border-color); font-family: &amp;quot;Times New Roman&amp;quot;; font-size: 24px;&quot;&gt;Fadyl-Store&amp;nbsp; cas d&#39;utilisations visiteur&lt;/b&gt;" style="shape=umlFrame;whiteSpace=wrap;html=1;pointerEvents=0;width=440;height=44;" vertex="1" parent="1">
          <mxGeometry x="350" y="-760" width="980" height="530" as="geometry" />
        </mxCell>
      </root>
    </mxGraphModel>
  </diagram>
</mxfile>
